# xmcd CD database file
#
# Track frame offsets:
#	150
#	16907
#	34243
#	54030
#	75624
#	94993
#	115901
#	136061
#	154252
#	174157
#	194035
#	215619
#	235176
#
# Disc length: 3411 seconds
#
# Revision: 24
# Processed by: cddbd v1.5.2PL0 Copyright (c) Steve Scherf et al.
# Submitted via: CDex 1.70beta2
#
DISCID=a50d510d
DTITLE=上海アリス幻樂団 - 蓬莱人形 ～ Dolls in Pseudo Paradise
DYEAR=2002
DGENRE=Soundtrack
TTITLE0=蓬莱伝説
TTITLE1=二色蓮花蝶 ～ Red and White
TTITLE2=桜花之恋塚 ～ Japanese Flower
TTITLE3=明治十七年の上海アリス
TTITLE4=東方怪奇談
TTITLE5=エニグマティクドール
TTITLE6=サーカスレヴァリエ
TTITLE7=人形の森
TTITLE8=Witch of Love Potion
TTITLE9=リーインカーネイション
TTITLE10=U.N.オーエンは彼女なのか？
TTITLE11=永遠の巫女
TTITLE12=空飛ぶ巫女の不思議な毎日
EXTD=YEAR: 2002
EXTT0=
EXTT1=
EXTT2=
EXTT3=
EXTT4=
EXTT5=
EXTT6=
EXTT7=
EXTT8=
EXTT9=
EXTT10=
EXTT11=
EXTT12=
PLAYORDER=
